<svg xmlns="http://www.w3.org/2000/svg" xmlns:xlink="http://www.w3.org/1999/xlink" version="1.1" width="1080" height="1080" viewBox="0 0 1080 1080" xml:space="preserve">
<defs>
</defs>
<g transform="matrix(1 0 0 1 540 540)" id="cc1c3d86-8094-4581-bc7d-31b371b5af71"  >
<rect style="stroke: none; stroke-width: 1; stroke-dasharray: none; stroke-linecap: butt; stroke-dashoffset: 0; stroke-linejoin: miter; stroke-miterlimit: 4; fill: rgb(255,255,255); fill-rule: nonzero; opacity: 1; visibility: hidden;" vector-effect="non-scaling-stroke"  x="-540" y="-540" rx="0" ry="0" width="1080" height="1080" />
</g>
<g transform="matrix(1 0 0 1 540 540)" id="934d74b5-cf18-4f8e-877c-85b617ef2c76"  >
</g>
<g transform="matrix(6.21 0 0 6.21 540 540)"  >
<g style=""   >
		<g transform="matrix(1 0 0 1 22.31 -5.14)" id="path0"  >
<path style="stroke: none; stroke-width: 1; stroke-dasharray: none; stroke-linecap: butt; stroke-dashoffset: 0; stroke-linejoin: miter; stroke-miterlimit: 4; fill: rgb(251,165,227); fill-rule: evenodd; opacity: 1;" vector-effect="non-scaling-stroke"  transform=" translate(-222.93, -45.57)" d="M 217.234 0.583 C 217.062 0.813 216.807 1.002 216.669 1.005 C 216.361 1.012 215.833 1.395 215.833 1.612 C 215.833 1.7 215.571 1.874 215.25 2 C 214.929 2.126 214.667 2.327 214.667 2.448 C 214.667 2.568 214.569 2.667 214.45 2.667 C 214.143 2.667 213.336 3.059 213.335 3.208 C 213.334 3.277 213.218 3.333 213.078 3.333 C 212.938 3.333 212.78 3.446 212.727 3.583 C 212.674 3.721 212.5 3.833 212.34 3.833 C 212.18 3.833 211.846 4.021 211.599 4.25 C 211.352 4.479 211.041 4.667 210.908 4.667 C 210.775 4.667 210.667 4.742 210.667 4.833 C 210.667 4.925 210.479 5 210.25 5 C 210.021 5 209.833 5.075 209.833 5.167 C 209.833 5.258 209.646 5.333 209.417 5.333 C 209.157 5.333 209 5.428 209 5.583 C 209 5.739 208.843 5.833 208.583 5.833 C 208.354 5.833 208.167 5.908 208.167 6 C 208.167 6.092 207.987 6.167 207.768 6.167 C 207.548 6.167 207.326 6.279 207.273 6.417 C 207.217 6.563 206.967 6.667 206.672 6.667 C 206.394 6.667 206.167 6.742 206.167 6.833 C 206.167 6.925 205.946 7 205.677 7 C 205.407 7 205.14 7.075 205.083 7.167 C 205.027 7.258 204.832 7.333 204.652 7.333 C 204.471 7.333 204.28 7.446 204.227 7.583 C 204.168 7.738 203.914 7.833 203.566 7.833 C 203.117 7.833 203 7.9 203 8.157 C 203 8.335 202.925 8.527 202.833 8.583 C 202.742 8.64 202.667 8.912 202.667 9.188 C 202.667 9.465 202.554 9.803 202.417 9.94 C 202.279 10.078 202.167 10.443 202.167 10.752 C 202.167 11.061 202.092 11.36 202 11.417 C 201.908 11.473 201.833 11.845 201.833 12.242 C 201.833 12.704 201.75 12.996 201.602 13.053 C 201.475 13.102 201.325 13.447 201.269 13.821 C 201.213 14.194 201.121 14.8 201.066 15.167 C 201.01 15.533 200.898 15.833 200.816 15.833 C 200.734 15.833 200.667 16.163 200.667 16.566 C 200.667 17.063 200.586 17.328 200.417 17.394 C 200.253 17.457 200.167 17.717 200.167 18.152 C 200.167 18.516 200.092 18.86 200 18.917 C 199.908 18.973 199.833 19.243 199.833 19.516 C 199.833 19.789 199.711 20.199 199.561 20.427 C 199.13 21.086 199.579 21.451 200.974 21.576 C 204.877 21.924 206.66 23.091 207.342 25.745 C 207.639 26.9 208.055 27.123 208.128 26.167 C 208.222 24.955 208.294 24.833 208.924 24.833 C 209.539 24.833 209.678 25.015 210.005 26.25 C 210.413 27.787 211.228 30.472 211.392 30.82 C 211.848 31.784 211.904 31.833 212.54 31.833 C 212.884 31.833 213.167 31.908 213.167 32 C 213.167 32.092 213.392 32.167 213.667 32.167 C 214.089 32.167 214.167 32.231 214.167 32.583 C 214.167 32.813 214.092 33 214 33 C 213.908 33 213.833 33.375 213.833 33.833 C 213.833 34.463 213.772 34.667 213.583 34.667 C 213.398 34.667 213.333 34.861 213.333 35.417 C 213.333 35.871 213.258 36.167 213.142 36.167 C 212.894 36.167 213.05 39.071 213.393 40.833 C 213.526 41.521 213.722 42.646 213.828 43.333 C 213.934 44.021 214.101 45.014 214.199 45.539 C 214.337 46.277 214.33 46.553 214.169 46.748 C 214.015 46.933 214.008 47.059 214.142 47.221 C 214.257 47.359 214.343 48.592 214.371 50.512 L 214.417 53.583 L 214.958 53.636 C 215.493 53.687 215.657 53.883 215.333 54.083 C 214.98 54.302 215.128 57.667 215.491 57.667 C 215.728 57.667 215.939 57.387 216.278 56.625 C 218.042 52.66 220.046 49.224 224.3 42.875 C 226.496 39.598 226.835 39.235 227.285 39.685 C 227.456 39.856 228.65 38.503 228.663 38.125 C 228.673 37.82 228.052 38.046 227.555 38.528 C 226.627 39.427 226.627 38.695 227.554 37.713 C 227.969 37.275 228.469 36.729 228.666 36.5 C 228.864 36.271 229.414 35.671 229.889 35.167 C 230.364 34.662 231.567 33.369 232.563 32.292 C 234.949 29.712 235.117 29.688 237.077 31.66 C 238.557 33.149 238.556 33.141 237.448 34.337 C 235.117 36.856 234.985 37.167 236.25 37.167 C 237.092 37.167 237.167 37.136 237.167 36.789 C 237.167 35.866 240.307 32.5 241.169 32.5 C 241.259 32.5 241.333 32.425 241.333 32.333 C 241.333 32.242 241.446 32.167 241.583 32.167 C 241.764 32.167 241.833 31.981 241.833 31.5 C 241.833 31.133 241.908 30.833 242 30.833 C 242.092 30.833 242.167 30.504 242.167 30.101 C 242.167 29.604 242.247 29.338 242.417 29.273 C 242.582 29.21 242.667 28.949 242.667 28.505 C 242.667 28.136 242.742 27.833 242.833 27.833 C 242.925 27.833 243 27.533 243 27.167 C 243 26.8 243.075 26.5 243.167 26.5 C 243.258 26.5 243.333 26.162 243.333 25.75 C 243.333 25.194 243.398 25 243.583 25 C 243.768 25 243.833 24.807 243.833 24.26 C 243.833 23.853 243.908 23.473 244 23.417 C 244.092 23.36 244.167 23.088 244.167 22.812 C 244.167 22.535 244.279 22.197 244.417 22.06 C 244.554 21.922 244.667 21.557 244.667 21.248 C 244.667 20.939 244.742 20.64 244.833 20.583 C 244.925 20.527 245 20.227 245 19.917 C 245 19.607 245.075 19.307 245.167 19.25 C 245.258 19.193 245.333 18.859 245.333 18.508 C 245.333 18.094 245.421 17.835 245.583 17.773 C 245.747 17.71 245.833 17.45 245.833 17.015 C 245.833 16.651 245.908 16.307 246 16.25 C 246.092 16.193 246.167 15.895 246.167 15.587 C 246.167 15.28 246.249 15 246.35 14.967 C 246.45 14.933 246.573 14.552 246.621 14.12 C 246.67 13.687 246.775 13.333 246.855 13.333 C 246.935 13.333 247 13.038 247 12.677 C 247 12.315 247.075 11.973 247.167 11.917 C 247.258 11.86 247.333 11.518 247.333 11.157 C 247.333 10.684 247.403 10.5 247.583 10.5 C 247.769 10.5 247.833 10.306 247.833 9.75 C 247.833 9.337 247.908 9 248 9 C 248.251 9 248.2 8.343 247.929 8.071 C 247.793 7.936 247.369 7.833 246.946 7.833 C 246.439 7.833 246.172 7.754 246.106 7.583 C 246.047 7.428 245.792 7.333 245.432 7.333 C 245.113 7.333 244.807 7.258 244.75 7.167 C 244.693 7.075 244.351 7 243.99 7 C 243.629 7 243.333 6.925 243.333 6.833 C 243.333 6.742 243.004 6.667 242.601 6.667 C 242.104 6.667 241.838 6.586 241.773 6.417 C 241.707 6.245 241.439 6.167 240.922 6.167 C 240.507 6.167 240.167 6.092 240.167 6 C 240.167 5.908 239.899 5.833 239.571 5.833 C 239.244 5.833 238.864 5.721 238.726 5.583 C 238.589 5.446 238.219 5.333 237.905 5.333 C 237.59 5.333 237.333 5.258 237.333 5.167 C 237.333 5.075 236.996 5 236.583 5 C 236.171 5 235.833 4.925 235.833 4.833 C 235.833 4.742 235.458 4.667 235 4.667 C 234.37 4.667 234.167 4.606 234.167 4.417 C 234.167 4.237 233.983 4.167 233.51 4.167 C 233.149 4.167 232.807 4.092 232.75 4 C 232.693 3.908 232.384 3.833 232.062 3.833 C 231.74 3.833 231.364 3.721 231.226 3.583 C 231.089 3.446 230.723 3.333 230.415 3.333 C 230.106 3.333 229.807 3.258 229.75 3.167 C 229.693 3.075 229.314 3 228.907 3 C 228.5 3 228.167 2.925 228.167 2.833 C 228.167 2.742 227.875 2.667 227.518 2.667 C 227.095 2.667 226.836 2.58 226.773 2.417 C 226.71 2.252 226.449 2.167 226.005 2.167 C 225.636 2.167 225.333 2.092 225.333 2 C 225.333 1.908 225.028 1.833 224.655 1.833 C 224.274 1.833 223.867 1.724 223.726 1.583 C 223.589 1.446 223.182 1.333 222.821 1.333 C 222.461 1.333 222.167 1.258 222.167 1.167 C 222.167 1.075 221.867 1 221.5 1 C 221.133 1 220.833 0.925 220.833 0.833 C 220.833 0.742 220.504 0.667 220.101 0.667 C 219.604 0.667 219.338 0.586 219.273 0.417 C 219.099 -0.038 217.609 0.084 217.234 0.583 M 199 22.833 C 199 23.108 198.925 23.333 198.833 23.333 C 198.742 23.333 198.667 23.601 198.667 23.929 C 198.667 24.256 198.554 24.636 198.417 24.774 C 198.279 24.911 198.167 25.277 198.167 25.585 C 198.167 25.894 198.092 26.193 198 26.25 C 197.26 26.707 198.017 28.167 198.993 28.167 C 199.447 28.167 199.709 28.251 199.773 28.417 C 199.826 28.554 200.048 28.667 200.268 28.667 C 200.764 28.667 200.797 28.244 200.34 27.757 C 200.038 27.436 200.031 27.359 200.249 26.746 C 200.558 25.88 200.556 25.352 200.242 24.381 C 199.632 22.492 199 21.705 199 22.833 M 232.279 30.086 C 232.39 30.422 229.359 33.261 229.235 32.937 C 229.096 32.576 229.329 32.128 230.133 31.205 C 231.13 30.059 232.101 29.553 232.279 30.086 M 227.5 34.958 C 227.499 35.085 225.223 38.156 222.781 41.325 C 220.832 43.854 220.921 42.828 222.918 39.75 C 224.548 37.239 227.502 34.149 227.5 34.958 M 239.228 35.129 C 238.677 35.575 238.413 36.176 238.691 36.352 C 239.29 36.731 240 36.392 240 35.727 C 240 35.521 240.075 35.307 240.167 35.25 C 240.462 35.067 240.344 34.833 239.958 34.837 C 239.752 34.839 239.423 34.97 239.228 35.129 M 233.066 38.628 C 232.778 38.819 231.167 41.467 231.167 41.748 C 231.167 42.327 231.739 41.82 232.99 40.133 C 233.777 39.072 233.825 38.123 233.066 38.628 M 238.294 39.847 C 237.761 40.404 237.013 41.285 236.632 41.805 C 236.251 42.325 235.895 42.788 235.841 42.833 C 235.464 43.15 231.787 48.458 231.165 49.583 C 230.861 50.133 230.427 50.921 230.2 51.333 C 229.973 51.746 229.098 53.321 228.254 54.833 C 227.41 56.346 226.455 58.071 226.13 58.667 C 225.031 60.683 224.622 61.416 224.502 61.583 C 224.436 61.675 224.117 62.237 223.794 62.833 C 223.269 63.803 223.008 64.275 222 66.083 C 221.847 66.358 221.474 67.033 221.172 67.583 C 220.87 68.133 219.838 69.99 218.878 71.708 L 217.133 74.833 L 216.476 74.833 C 216.073 74.833 215.639 74.7 215.352 74.487 C 214.512 73.866 213.167 74.782 213.167 75.974 C 213.167 77.741 208.429 76.8 207.424 74.833 C 207.021 74.045 206.754 72.224 206.971 71.748 C 207.078 71.511 207.167 71.12 207.167 70.878 L 207.167 70.438 L 206.667 70.917 C 206.025 71.532 205.929 73.182 206.5 73.795 C 207.198 74.545 206.624 75.5 205.475 75.5 C 204.785 75.5 204.648 75.254 204.363 73.5 C 204.184 72.403 203.444 72.372 203.365 73.458 C 203.337 73.848 203.243 74.167 203.157 74.167 C 203.071 74.167 203 74.5 203 74.907 C 203 75.314 202.925 75.693 202.833 75.75 C 202.742 75.807 202.667 76.102 202.667 76.406 C 202.667 76.71 202.554 77.053 202.417 77.167 C 202.273 77.286 202.167 77.649 202.167 78.02 C 202.167 78.376 202.092 78.667 202 78.667 C 201.908 78.667 201.833 78.972 201.833 79.345 C 201.833 79.726 201.724 80.133 201.583 80.274 C 201.446 80.411 201.333 80.818 201.333 81.179 C 201.333 81.539 201.258 81.833 201.167 81.833 C 201.075 81.833 201 82.129 201 82.49 C 201 82.851 200.925 83.193 200.833 83.25 C 200.742 83.307 200.667 83.616 200.667 83.938 C 200.667 84.26 200.554 84.636 200.417 84.774 C 200.279 84.911 200.167 85.277 200.167 85.585 C 200.167 85.894 200.092 86.193 200 86.25 C 199.908 86.307 199.833 86.678 199.833 87.075 C 199.833 87.564 199.752 87.829 199.583 87.894 C 199.419 87.957 199.333 88.217 199.333 88.652 C 199.333 89.016 199.258 89.36 199.167 89.417 C 198.656 89.732 198.989 91 199.583 91 C 199.904 91 200.167 90.935 200.167 90.855 C 200.167 90.775 200.52 90.67 200.953 90.621 C 201.385 90.573 201.767 90.45 201.8 90.35 C 201.834 90.249 202.192 90.167 202.597 90.167 C 203.002 90.167 203.333 90.092 203.333 90 C 203.333 89.908 203.673 89.833 204.089 89.833 C 204.606 89.833 204.874 89.755 204.94 89.583 C 205.005 89.414 205.271 89.333 205.768 89.333 C 206.171 89.333 206.5 89.258 206.5 89.167 C 206.5 89.074 206.944 89 207.5 89 C 208.056 89 208.5 88.926 208.5 88.833 C 208.5 88.742 208.903 88.667 209.396 88.667 C 209.99 88.667 210.363 88.582 210.5 88.417 C 210.637 88.252 211.009 88.167 211.594 88.167 C 212.081 88.167 212.527 88.092 212.583 88 C 212.64 87.908 213.348 87.833 214.156 87.833 C 215.259 87.833 215.678 87.771 215.833 87.583 C 215.992 87.392 216.427 87.333 217.687 87.333 C 218.652 87.333 219.333 87.266 219.333 87.17 C 219.333 87.07 220.731 86.989 222.958 86.962 L 226.583 86.917 L 226.636 86.375 C 226.664 86.077 226.758 85.833 226.844 85.833 C 226.93 85.833 227 85.533 227 85.167 C 227 84.8 227.075 84.5 227.167 84.5 C 227.258 84.5 227.333 84.171 227.333 83.768 C 227.333 83.271 227.414 83.005 227.583 82.94 C 227.747 82.877 227.833 82.616 227.833 82.182 C 227.833 81.818 227.908 81.473 228 81.417 C 228.092 81.36 228.167 81.088 228.167 80.812 C 228.167 80.535 228.279 80.197 228.417 80.06 C 228.554 79.922 228.667 79.557 228.667 79.248 C 228.667 78.939 228.742 78.64 228.833 78.583 C 228.925 78.527 229 78.227 229 77.917 C 229 77.607 229.075 77.307 229.167 77.25 C 229.258 77.193 229.333 76.859 229.333 76.508 C 229.333 76.094 229.421 75.835 229.583 75.773 C 229.755 75.707 229.833 75.439 229.833 74.922 C 229.833 74.507 229.908 74.167 230 74.167 C 230.092 74.167 230.167 73.91 230.167 73.597 C 230.167 73.284 230.249 73 230.35 72.967 C 230.45 72.933 230.573 72.552 230.621 72.12 C 230.67 71.687 230.775 71.333 230.855 71.333 C 230.935 71.333 231 71.038 231 70.677 C 231 70.315 231.075 69.973 231.167 69.917 C 231.258 69.86 231.333 69.518 231.333 69.157 C 231.333 68.684 231.403 68.5 231.583 68.5 C 231.769 68.5 231.833 68.306 231.833 67.75 C 231.833 67.337 231.908 67 232 67 C 232.092 67 232.167 66.732 232.167 66.405 C 232.167 66.077 232.279 65.697 232.417 65.56 C 232.554 65.422 232.667 65.052 232.667 64.738 C 232.667 64.424 232.742 64.167 232.833 64.167 C 232.925 64.167 233 63.829 233 63.417 C 233 63.004 233.075 62.667 233.167 62.667 C 233.258 62.667 233.333 62.375 233.333 62.018 C 233.333 61.595 233.42 61.336 233.583 61.273 C 233.748 61.21 233.833 60.949 233.833 60.505 C 233.833 60.136 233.908 59.833 234 59.833 C 234.092 59.833 234.167 59.493 234.167 59.078 C 234.167 58.561 234.245 58.293 234.417 58.227 C 234.57 58.168 234.667 57.916 234.667 57.575 C 234.667 57.27 234.742 56.973 234.833 56.917 C 234.925 56.86 235 56.481 235 56.073 C 235 55.666 235.075 55.333 235.167 55.333 C 235.258 55.333 235.333 55.103 235.333 54.821 C 235.333 54.54 235.446 54.197 235.583 54.06 C 235.721 53.922 235.833 53.515 235.833 53.155 C 235.833 52.795 235.908 52.5 236 52.5 C 236.092 52.5 236.167 52.171 236.167 51.768 C 236.167 51.271 236.247 51.005 236.417 50.94 C 236.574 50.88 236.667 50.625 236.667 50.255 C 236.667 49.932 236.742 49.667 236.833 49.667 C 236.925 49.667 237 49.329 237 48.917 C 237 48.504 237.075 48.167 237.167 48.167 C 237.258 48.167 237.333 47.876 237.333 47.52 C 237.333 47.149 237.44 46.786 237.583 46.667 C 237.721 46.553 237.833 46.206 237.833 45.896 C 237.833 45.587 237.908 45.333 238 45.333 C 238.092 45.333 238.167 45.004 238.167 44.601 C 238.167 44.104 238.247 43.838 238.417 43.773 C 238.572 43.713 238.667 43.459 238.667 43.098 C 238.667 42.78 238.742 42.473 238.833 42.417 C 238.925 42.36 239 42.018 239 41.657 C 239 41.296 239.075 41 239.167 41 C 239.258 41 239.333 40.625 239.333 40.167 C 239.333 39.537 239.394 39.333 239.583 39.333 C 239.721 39.333 239.833 39.221 239.833 39.083 C 239.833 38.568 239.234 38.865 238.294 39.847 M 219.738 45.595 C 220.514 46.372 219.54 48.54 218.659 47.995 C 218.427 47.852 218.666 46.69 219.114 45.792 C 219.38 45.256 219.395 45.252 219.738 45.595 M 218.333 48.859 C 218.333 49.069 217.513 50.215 217.299 50.306 C 217.226 50.336 217.167 50.435 217.167 50.526 C 217.167 50.762 216.67 51.226 216.548 51.104 C 216.492 51.047 216.652 50.72 216.903 50.376 C 217.155 50.032 217.524 49.507 217.722 49.21 C 218.093 48.657 218.333 48.519 218.333 48.859 M 220.869 60.88 C 220.063 61.696 219.798 62.167 220.142 62.167 C 220.399 62.167 222.022 60.337 221.917 60.166 C 221.777 59.94 221.841 59.896 220.869 60.88 M 218.302 64.479 C 217.998 64.747 217.457 65.51 217.099 66.176 L 216.447 67.388 L 216.835 67.702 C 217.582 68.307 217.812 68.077 218.495 66.039 C 219.179 64 219.146 63.734 218.302 64.479" stroke-linecap="round" />
</g>
		<g transform="matrix(1 0 0 1 -23.59 3.71)" id="path1"  >
<path style="stroke: none; stroke-width: 1; stroke-dasharray: none; stroke-linecap: butt; stroke-dashoffset: 0; stroke-linejoin: miter; stroke-miterlimit: 4; fill: rgb(4,244,251); fill-rule: evenodd; opacity: 1;" vector-effect="non-scaling-stroke"  transform=" translate(-177.03, -54.42)" d="M 199.083 9.167 C 199.027 9.258 198.728 9.333 198.419 9.333 C 198.11 9.333 197.745 9.446 197.607 9.583 C 197.468 9.722 197.061 9.833 196.688 9.833 C 196.321 9.833 195.973 9.908 195.917 10 C 195.86 10.092 195.527 10.167 195.177 10.167 C 194.815 10.167 194.451 10.274 194.333 10.417 C 194.207 10.569 193.841 10.667 193.396 10.667 C 192.995 10.667 192.667 10.742 192.667 10.833 C 192.667 10.926 192.222 11 191.667 11 C 191.111 11 190.667 11.074 190.667 11.167 C 190.667 11.258 190.249 11.333 189.738 11.333 C 189.135 11.333 188.722 11.421 188.56 11.583 C 188.386 11.757 187.96 11.833 187.165 11.833 C 186.535 11.833 185.973 11.908 185.917 12 C 185.86 12.092 185.109 12.167 184.24 12.167 C 182.953 12.167 182.667 12.212 182.667 12.417 C 182.667 12.629 182.233 12.667 179.76 12.667 C 178.002 12.667 176.812 12.733 176.75 12.833 C 176.693 12.926 175.915 13 174.99 13 C 173.345 13 173.333 13.003 173.333 13.407 C 173.333 13.631 173.258 13.86 173.167 13.917 C 173.075 13.973 173 14.311 173 14.667 C 173 15.023 172.925 15.36 172.833 15.417 C 172.742 15.473 172.667 15.769 172.667 16.073 C 172.667 16.377 172.554 16.719 172.417 16.833 C 172.279 16.947 172.167 17.29 172.167 17.594 C 172.167 17.898 172.092 18.193 172 18.25 C 171.908 18.307 171.833 18.678 171.833 19.075 C 171.833 19.564 171.752 19.829 171.583 19.894 C 171.439 19.949 171.333 20.198 171.333 20.485 C 171.333 20.757 171.258 21.027 171.167 21.083 C 171.075 21.14 171 21.519 171 21.927 C 171 22.334 170.925 22.667 170.833 22.667 C 170.742 22.667 170.667 22.969 170.667 23.339 C 170.667 23.782 170.582 24.043 170.417 24.106 C 170.04 24.251 170.116 24.667 170.519 24.667 C 170.713 24.667 171.165 24.502 171.523 24.3 L 172.175 23.934 L 172.538 24.297 C 172.898 24.657 172.899 24.68 172.685 26.955 C 172.567 28.217 172.405 30 172.326 30.917 C 171.949 35.274 171.829 36.619 171.585 39.25 C 171.439 40.808 171.251 42.908 171.167 43.917 C 171.082 44.925 170.894 47.025 170.749 48.583 C 170.505 51.202 170.405 52.327 170.007 56.917 C 169.928 57.833 169.777 59.465 169.672 60.542 C 169.432 63.001 169.36 62.924 171.296 62.266 C 172.188 61.964 173.442 61.596 174.083 61.449 C 174.725 61.302 175.756 61.062 176.375 60.916 C 177.381 60.679 178.239 60.513 181.083 60.002 C 181.542 59.92 182.554 59.736 183.333 59.593 C 184.112 59.45 185.275 59.256 185.917 59.162 C 187.55 58.922 188.165 58.675 188.172 58.258 C 188.175 58.07 188.287 57.771 188.422 57.593 C 188.557 57.415 188.667 57.021 188.667 56.718 C 188.667 56.415 188.742 56.167 188.833 56.167 C 188.925 56.167 189 55.834 189 55.427 C 189 55.019 189.075 54.64 189.167 54.583 C 189.258 54.527 189.333 54.182 189.333 53.818 C 189.333 53.384 189.419 53.123 189.583 53.06 C 189.745 52.998 189.833 52.74 189.833 52.325 C 189.833 51.974 189.908 51.64 190 51.583 C 190.092 51.527 190.167 51.217 190.167 50.895 C 190.167 50.573 190.279 50.197 190.417 50.06 C 190.554 49.922 190.667 49.515 190.667 49.155 C 190.667 48.795 190.742 48.5 190.833 48.5 C 190.925 48.5 191 48.163 191 47.75 C 191 47.337 191.075 47 191.167 47 C 191.258 47 191.333 46.625 191.333 46.167 C 191.333 45.537 191.394 45.333 191.583 45.333 C 191.763 45.333 191.833 45.149 191.833 44.677 C 191.833 44.315 191.908 43.973 192 43.917 C 192.092 43.86 192.167 43.55 192.167 43.228 C 192.167 42.906 192.279 42.53 192.417 42.393 C 192.554 42.255 192.667 41.886 192.667 41.571 C 192.667 41.257 192.742 41 192.833 41 C 192.925 41 193 40.625 193 40.167 C 193 39.708 193.075 39.333 193.167 39.333 C 193.258 39.333 193.333 38.996 193.333 38.583 C 193.333 38.028 193.398 37.833 193.583 37.833 C 193.768 37.833 193.833 37.64 193.833 37.093 C 193.833 36.686 193.908 36.307 194 36.25 C 194.092 36.193 194.169 35.908 194.172 35.615 C 194.175 35.323 194.287 34.938 194.422 34.76 C 194.557 34.582 194.667 34.188 194.667 33.885 C 194.667 33.581 194.742 33.333 194.833 33.333 C 194.925 33.333 195 32.996 195 32.583 C 195 32.171 195.075 31.833 195.167 31.833 C 195.258 31.833 195.333 31.458 195.333 31 C 195.333 30.37 195.394 30.167 195.583 30.167 C 195.769 30.167 195.833 29.972 195.833 29.417 C 195.833 29.004 195.908 28.667 196 28.667 C 196.092 28.667 196.167 28.399 196.167 28.071 C 196.167 27.744 196.279 27.364 196.417 27.226 C 196.554 27.089 196.667 26.723 196.667 26.415 C 196.667 26.106 196.742 25.807 196.833 25.75 C 196.925 25.693 197 25.314 197 24.907 C 197 24.5 197.075 24.167 197.167 24.167 C 197.258 24.167 197.333 23.837 197.333 23.434 C 197.333 22.937 197.414 22.672 197.583 22.606 C 197.747 22.543 197.833 22.283 197.833 21.848 C 197.833 21.484 197.908 21.14 198 21.083 C 198.092 21.027 198.167 20.717 198.167 20.395 C 198.167 20.073 198.279 19.697 198.417 19.56 C 198.554 19.422 198.667 19.057 198.667 18.748 C 198.667 18.439 198.742 18.14 198.833 18.083 C 198.925 18.027 199 17.689 199 17.333 C 199 16.977 199.075 16.64 199.167 16.583 C 199.258 16.527 199.333 16.147 199.333 15.74 C 199.333 15.193 199.399 15 199.583 15 C 199.768 15 199.833 14.807 199.833 14.26 C 199.833 13.853 199.908 13.473 200 13.417 C 200.092 13.36 200.169 13.074 200.172 12.782 C 200.175 12.489 200.287 12.104 200.422 11.926 C 200.557 11.749 200.667 11.355 200.667 11.051 C 200.667 10.748 200.742 10.5 200.833 10.5 C 200.925 10.5 201 10.162 201 9.75 L 201 9 L 200.093 9 C 199.594 9 199.14 9.075 199.083 9.167 M 160.838 59.575 C 160.835 59.934 160.883 60.017 161.017 59.883 C 161.149 59.751 161.151 59.612 161.022 59.391 C 160.866 59.121 160.843 59.144 160.838 59.575 M 185.833 60.174 C 185.512 60.25 184.425 60.466 183.417 60.654 C 181.446 61.02 178.83 61.56 177.75 61.823 C 177.383 61.912 176.59 62.101 175.988 62.243 C 172.661 63.026 169.272 64.403 169.828 64.747 C 169.922 64.805 170.058 64.817 170.129 64.773 C 170.2 64.73 170.987 64.5 171.879 64.264 C 172.77 64.027 174.221 63.642 175.102 63.408 C 176.551 63.024 176.732 63.007 176.988 63.239 C 177.295 63.517 177.474 63.493 181.25 62.684 C 184.492 61.989 185.445 61.788 186.167 61.647 C 186.837 61.515 187.811 60.732 187.829 60.311 C 187.841 60.021 186.778 59.948 185.833 60.174 M 157.833 69.655 C 157.833 70.015 157.721 70.422 157.583 70.56 C 157.446 70.697 157.333 71.04 157.333 71.321 C 157.333 71.603 157.258 71.833 157.167 71.833 C 157.075 71.833 157 72.171 157 72.583 C 157 72.996 156.925 73.333 156.833 73.333 C 156.742 73.333 156.667 73.558 156.667 73.833 C 156.667 74.108 156.742 74.333 156.833 74.333 C 156.925 74.333 157 74.155 157 73.936 C 157 73.704 157.121 73.5 157.292 73.446 C 157.452 73.396 157.771 73.239 158 73.098 C 158.229 72.957 158.698 72.732 159.042 72.596 L 159.667 72.35 L 159.667 71.324 C 159.667 70.429 159.601 70.215 159.153 69.649 C 158.428 68.734 157.833 68.736 157.833 69.655 M 190.833 69.852 C 190.062 70.079 189.429 70.24 187.333 70.739 C 185.139 71.262 178.888 72.767 177.667 73.067 C 177.162 73.191 175.137 73.909 173.167 74.662 C 159.906 79.731 161.099 79.55 158.954 76.825 C 158.159 75.815 157.662 75.338 157.249 75.189 C 156.929 75.073 156.667 74.899 156.667 74.802 C 156.667 74.692 156.573 74.704 156.417 74.833 C 156.279 74.947 156.167 75.294 156.167 75.604 C 156.167 75.913 156.092 76.167 156 76.167 C 155.908 76.167 155.833 76.534 155.833 76.982 C 155.833 77.553 155.758 77.826 155.583 77.894 C 155.439 77.949 155.333 78.198 155.333 78.485 C 155.333 78.757 155.258 79.027 155.167 79.083 C 155.075 79.14 155 79.519 155 79.927 C 155 80.334 154.925 80.667 154.833 80.667 C 154.742 80.667 154.667 80.969 154.667 81.339 C 154.667 81.782 154.582 82.043 154.417 82.106 C 154.254 82.169 154.167 82.428 154.167 82.851 C 154.167 83.208 154.092 83.5 154 83.5 C 153.908 83.5 153.833 83.829 153.833 84.232 C 153.833 84.703 153.751 84.996 153.602 85.053 C 153.475 85.102 153.323 85.466 153.265 85.863 C 153.008 87.608 152.957 87.833 152.816 87.833 C 152.734 87.833 152.667 88.163 152.667 88.566 C 152.667 89.063 152.586 89.328 152.417 89.394 C 152.26 89.454 152.167 89.709 152.167 90.078 C 152.167 90.402 152.092 90.667 152 90.667 C 151.908 90.667 151.833 90.929 151.833 91.25 C 151.833 91.784 151.874 91.833 152.323 91.833 C 152.593 91.833 152.86 91.908 152.917 92 C 152.973 92.092 153.283 92.167 153.605 92.167 C 153.927 92.167 154.303 92.279 154.44 92.417 C 154.578 92.554 154.948 92.667 155.262 92.667 C 155.576 92.667 155.833 92.742 155.833 92.833 C 155.833 92.925 156.166 93 156.573 93 C 156.981 93 157.36 93.075 157.417 93.167 C 157.473 93.258 157.818 93.333 158.182 93.333 C 158.616 93.333 158.877 93.419 158.94 93.583 C 159.002 93.746 159.262 93.833 159.684 93.833 C 160.041 93.833 160.333 93.908 160.333 94 C 160.333 94.092 160.639 94.167 161.012 94.167 C 161.393 94.167 161.8 94.276 161.94 94.417 C 162.078 94.554 162.443 94.667 162.752 94.667 C 163.061 94.667 163.36 94.742 163.417 94.833 C 163.473 94.925 163.811 95 164.167 95 C 164.523 95 164.86 95.075 164.917 95.167 C 164.973 95.258 165.283 95.333 165.605 95.333 C 165.927 95.333 166.303 95.446 166.44 95.583 C 166.578 95.721 166.948 95.833 167.262 95.833 C 167.576 95.833 167.833 95.908 167.833 96 C 167.833 96.092 168.162 96.167 168.563 96.167 C 169.008 96.167 169.373 96.264 169.5 96.417 C 169.614 96.554 169.956 96.667 170.261 96.667 C 170.565 96.667 170.86 96.742 170.917 96.833 C 170.973 96.925 171.315 97 171.677 97 C 172.038 97 172.333 97.075 172.333 97.167 C 172.333 97.258 172.663 97.333 173.066 97.333 C 173.563 97.333 173.828 97.414 173.894 97.583 C 173.957 97.747 174.217 97.833 174.652 97.833 C 175.016 97.833 175.36 97.908 175.417 98 C 175.473 98.092 175.806 98.167 176.156 98.167 C 176.518 98.167 176.882 98.274 177 98.417 C 177.114 98.554 177.456 98.667 177.761 98.667 C 178.065 98.667 178.36 98.742 178.417 98.833 C 178.473 98.925 178.815 99 179.177 99 C 179.538 99 179.833 99.075 179.833 99.167 C 179.833 99.258 180.173 99.333 180.589 99.333 C 181.106 99.333 181.374 99.412 181.44 99.583 C 181.492 99.721 181.642 99.833 181.773 99.833 C 181.904 99.833 182.054 99.721 182.106 99.583 C 182.159 99.446 182.365 99.333 182.564 99.333 C 182.763 99.333 183.035 99.183 183.167 99 C 183.299 98.817 183.464 98.667 183.535 98.667 C 183.791 98.667 184.988 97.744 184.994 97.542 C 184.997 97.427 185.188 97.333 185.417 97.333 C 185.646 97.333 185.833 97.272 185.833 97.198 C 185.833 97.123 186.096 96.937 186.417 96.784 C 186.737 96.631 187 96.429 187 96.336 C 187 96.243 187.16 96.167 187.356 96.167 C 187.552 96.167 187.886 95.979 188.098 95.75 C 188.31 95.521 188.6 95.333 188.742 95.333 C 188.884 95.333 189 95.258 189 95.167 C 189 95.075 189.188 95 189.417 95 C 189.646 95 189.833 94.925 189.833 94.833 C 189.833 94.742 189.986 94.667 190.172 94.667 C 190.358 94.667 190.554 94.554 190.606 94.417 C 190.659 94.279 190.84 94.167 191.008 94.167 C 191.176 94.167 191.36 94.092 191.417 94 C 191.473 93.908 191.668 93.833 191.848 93.833 C 192.029 93.833 192.22 93.721 192.273 93.583 C 192.328 93.441 192.576 93.333 192.851 93.333 C 193.116 93.333 193.333 93.258 193.333 93.167 C 193.333 93.075 193.516 93 193.74 93 C 193.964 93 194.193 92.925 194.25 92.833 C 194.307 92.742 194.538 92.667 194.765 92.667 C 194.992 92.667 195.22 92.554 195.273 92.417 C 195.332 92.262 195.586 92.167 195.934 92.167 C 196.246 92.167 196.5 92.092 196.5 92 C 196.5 91.908 196.612 91.833 196.75 91.833 C 196.887 91.833 197 91.721 197 91.583 C 197 91.446 197.075 91.333 197.167 91.333 C 197.258 91.333 197.333 91.004 197.333 90.601 C 197.333 90.104 197.414 89.838 197.583 89.773 C 197.739 89.713 197.833 89.459 197.833 89.098 C 197.833 88.78 197.908 88.473 198 88.417 C 198.092 88.36 198.167 88.05 198.167 87.728 C 198.167 87.406 198.279 87.03 198.417 86.893 C 198.554 86.755 198.667 86.348 198.667 85.988 C 198.667 85.628 198.742 85.333 198.833 85.333 C 198.925 85.333 199 85.038 199 84.677 C 199 84.315 199.075 83.973 199.167 83.917 C 199.258 83.86 199.333 83.526 199.333 83.175 C 199.333 82.76 199.421 82.502 199.583 82.44 C 199.748 82.376 199.833 82.115 199.833 81.672 C 199.833 81.302 199.908 81 200 81 C 200.092 81 200.167 80.633 200.167 80.184 C 200.167 79.613 200.242 79.34 200.417 79.273 C 200.572 79.213 200.667 78.959 200.667 78.598 C 200.667 78.28 200.742 77.973 200.833 77.917 C 200.925 77.86 201 77.518 201 77.157 C 201 76.796 201.075 76.5 201.167 76.5 C 201.258 76.5 201.333 76.162 201.333 75.75 C 201.333 75.194 201.398 75 201.583 75 C 201.768 75 201.833 74.807 201.833 74.26 C 201.833 73.853 201.908 73.473 202 73.417 C 202.466 73.129 202.183 71.833 201.655 71.833 C 201.373 71.833 201.03 71.721 200.893 71.583 C 200.755 71.446 200.348 71.333 199.988 71.333 C 199.628 71.333 199.333 71.258 199.333 71.167 C 199.333 71.075 199.033 71 198.667 71 C 198.3 71 198 70.925 198 70.833 C 198 70.742 197.671 70.667 197.268 70.667 C 196.771 70.667 196.505 70.586 196.44 70.417 C 196.377 70.253 196.117 70.167 195.686 70.167 C 195.324 70.167 195.003 70.097 194.972 70.013 C 194.889 69.783 191.514 69.651 190.833 69.852" stroke-linecap="round" />
</g>
		<g transform="matrix(1 0 0 1 -0.65 -1.81)" id="path2"  >
<path style="stroke: none; stroke-width: 1; stroke-dasharray: none; stroke-linecap: butt; stroke-dashoffset: 0; stroke-linejoin: miter; stroke-miterlimit: 4; fill: rgb(251,251,99); fill-rule: evenodd; opacity: 1;" vector-effect="non-scaling-stroke"  transform=" translate(-199.97, -48.9)" d="M 257.125 18.872 C 256.794 18.984 256.667 19.14 256.667 19.431 C 256.667 19.662 256.569 19.833 256.437 19.833 C 256.311 19.833 256.109 20.077 255.988 20.375 C 255.868 20.673 255.671 20.977 255.551 21.05 C 255.431 21.123 255.333 21.33 255.333 21.508 C 255.333 21.687 255.258 21.833 255.167 21.833 C 255.07 21.833 255 22.36 255 23.081 C 255 24.276 254.984 24.328 254.625 24.29 C 254.314 24.257 254.241 24.342 254.198 24.792 C 254.159 25.194 254.213 25.333 254.406 25.333 C 254.746 25.333 254.755 26.097 254.417 26.227 C 254.272 26.282 254.167 26.532 254.167 26.818 C 254.167 27.091 254.092 27.36 254 27.417 C 253.908 27.473 253.833 27.77 253.833 28.075 C 253.833 28.416 253.736 28.668 253.583 28.727 C 253.437 28.783 253.333 29.033 253.333 29.328 C 253.333 29.606 253.258 29.833 253.167 29.833 C 253.075 29.833 253 30.016 253 30.24 C 253 30.464 252.925 30.693 252.833 30.75 C 252.742 30.807 252.667 31.074 252.667 31.343 C 252.667 31.668 252.582 31.833 252.417 31.833 C 252.242 31.833 252.167 32.009 252.167 32.417 C 252.167 32.737 252.092 33 252 33 C 251.908 33 251.833 33.155 251.833 33.345 C 251.833 33.535 251.721 33.803 251.583 33.94 C 251.446 34.078 251.333 34.368 251.333 34.585 C 251.333 34.803 251.258 35.027 251.167 35.083 C 251.075 35.14 251 35.411 251 35.686 C 251 35.977 250.93 36.143 250.833 36.083 C 250.738 36.025 250.667 36.169 250.667 36.419 C 250.667 36.66 250.554 36.97 250.417 37.107 C 250.279 37.245 250.167 37.539 250.167 37.762 C 250.167 37.985 250.092 38.167 250 38.167 C 249.908 38.167 249.833 38.396 249.833 38.677 C 249.833 38.957 249.762 39.142 249.675 39.089 C 249.588 39.035 249.467 39.255 249.407 39.579 C 249.346 39.902 249.23 40.167 249.148 40.167 C 249.067 40.167 249 40.387 249 40.657 C 249 40.926 248.925 41.193 248.833 41.25 C 248.742 41.307 248.667 41.528 248.667 41.742 C 248.667 41.956 248.554 42.174 248.417 42.227 C 248.259 42.288 248.167 42.543 248.167 42.921 C 248.167 43.278 248.099 43.478 248 43.417 C 247.908 43.36 247.833 43.468 247.833 43.658 C 247.833 43.847 247.646 44.39 247.417 44.865 C 247.188 45.34 247 45.94 247 46.198 C 247 46.456 246.925 46.667 246.833 46.667 C 246.742 46.667 246.667 46.819 246.667 47.005 C 246.667 47.191 246.554 47.387 246.417 47.44 C 246.279 47.492 246.167 47.715 246.167 47.934 C 246.167 48.154 246.092 48.333 246 48.333 C 245.908 48.333 245.833 48.55 245.833 48.816 C 245.833 49.09 245.726 49.339 245.583 49.394 C 245.446 49.446 245.333 49.679 245.333 49.911 C 245.333 50.143 245.258 50.333 245.167 50.333 C 245.075 50.333 245 50.516 245 50.74 C 245 50.964 244.925 51.193 244.833 51.25 C 244.742 51.307 244.667 51.536 244.667 51.76 C 244.667 52.01 244.571 52.167 244.417 52.167 C 244.249 52.167 244.167 52.334 244.167 52.677 C 244.167 52.974 244.097 53.143 244 53.083 C 243.903 53.024 243.833 53.186 243.833 53.47 C 243.833 53.739 243.721 54.053 243.583 54.167 C 243.446 54.281 243.333 54.515 243.333 54.687 C 243.333 54.859 243.258 55 243.167 55 C 243.075 55 243 55.188 243 55.417 C 243 55.646 242.925 55.833 242.833 55.833 C 242.742 55.833 242.667 56.021 242.667 56.25 C 242.667 56.479 242.597 56.667 242.512 56.667 C 242.338 56.667 241.833 57.605 241.833 57.928 C 241.833 58.044 241.777 58.164 241.708 58.194 C 241.527 58.275 241 59.319 241 59.597 C 241 59.727 240.925 59.833 240.833 59.833 C 240.742 59.833 240.667 60.021 240.667 60.25 C 240.667 60.509 240.572 60.667 240.417 60.667 C 240.279 60.667 240.167 60.812 240.167 60.99 C 240.167 61.168 240.092 61.36 240 61.417 C 239.908 61.473 239.833 61.657 239.833 61.825 C 239.833 61.993 239.721 62.174 239.583 62.227 C 239.446 62.28 239.333 62.475 239.333 62.661 C 239.333 62.848 239.258 63 239.167 63 C 239.075 63 239 63.112 239 63.25 C 239 63.387 238.925 63.5 238.833 63.5 C 238.742 63.5 238.667 63.65 238.667 63.833 C 238.667 64.019 238.556 64.167 238.417 64.167 C 238.279 64.167 238.167 64.279 238.167 64.417 C 238.167 64.554 238.092 64.667 238 64.667 C 237.908 64.667 237.833 64.783 237.833 64.925 C 237.833 65.067 237.647 65.355 237.419 65.566 C 237.192 65.777 237.054 65.999 237.114 66.058 C 237.173 66.118 237.097 66.167 236.944 66.167 C 236.792 66.167 236.667 66.279 236.667 66.417 C 236.667 66.554 236.55 66.667 236.407 66.667 C 236.264 66.667 236.193 66.742 236.25 66.833 C 236.307 66.925 236.263 67 236.154 67 C 236.044 67 235.781 67.188 235.569 67.417 C 235.32 67.686 235.002 67.833 234.675 67.833 L 234.167 67.833 L 234.167 69.25 C 234.167 70.083 234.098 70.667 234 70.667 C 233.908 70.667 233.833 70.821 233.833 71.01 C 233.833 71.199 233.758 71.307 233.667 71.25 C 233.575 71.193 233.5 71.223 233.5 71.316 C 233.5 71.409 233.313 71.672 233.083 71.902 C 232.854 72.131 232.667 72.397 232.667 72.492 C 232.667 72.588 232.554 72.667 232.417 72.667 C 232.279 72.667 232.164 72.798 232.161 72.958 C 232.155 73.324 231.778 73.833 231.514 73.833 C 230.924 73.833 231.437 74.917 232.052 74.968 C 232.39 74.997 232.667 75.091 232.667 75.177 C 232.667 75.263 233.01 75.333 233.429 75.333 C 233.884 75.333 234.291 75.434 234.44 75.583 C 234.809 75.952 239.632 75.952 239.773 75.583 C 239.828 75.439 240.077 75.333 240.361 75.333 C 240.647 75.333 240.81 75.263 240.75 75.167 C 240.693 75.075 240.77 75 240.92 75 C 241.07 75 241.506 74.683 241.888 74.296 L 242.583 73.592 L 242.636 74.129 C 242.674 74.525 242.77 74.667 243.001 74.667 C 243.173 74.667 243.36 74.742 243.417 74.833 C 243.596 75.123 245 75.04 245 74.74 C 245 74.597 245.075 74.527 245.167 74.583 C 245.258 74.64 245.333 74.567 245.333 74.421 C 245.333 74.275 245.446 74.113 245.583 74.06 C 245.721 74.008 245.833 73.855 245.833 73.721 C 245.833 73.587 246.096 73.23 246.417 72.927 C 246.737 72.625 247 72.255 247 72.105 C 247 71.956 247.075 71.833 247.167 71.833 C 247.258 71.833 247.333 71.762 247.333 71.675 C 247.333 71.588 247.521 71.315 247.75 71.068 C 247.979 70.82 248.167 70.516 248.167 70.392 C 248.167 70.268 248.238 70.167 248.326 70.167 C 248.413 70.167 248.609 69.904 248.761 69.583 C 248.913 69.262 249.104 69 249.186 69 C 249.267 69 249.333 68.813 249.333 68.583 C 249.333 68.354 249.414 68.167 249.512 68.167 C 249.806 68.167 250.167 67.714 250.167 67.345 C 250.167 67.149 250.275 67 250.417 67 C 250.554 67 250.667 66.887 250.667 66.75 C 250.667 66.612 250.742 66.5 250.833 66.5 C 250.925 66.5 251 66.35 251 66.167 C 251 65.983 251.075 65.833 251.167 65.833 C 251.258 65.833 251.333 65.721 251.333 65.583 C 251.333 65.446 251.39 65.333 251.458 65.332 C 251.626 65.331 252.167 64.367 252.167 64.07 C 252.167 63.94 252.242 63.833 252.334 63.833 C 252.426 63.833 252.631 63.533 252.79 63.167 C 252.949 62.8 253.136 62.5 253.206 62.5 C 253.276 62.5 253.333 62.35 253.333 62.167 C 253.333 61.981 253.444 61.833 253.583 61.833 C 253.739 61.833 253.833 61.676 253.833 61.417 C 253.833 61.188 253.908 61 254 61 C 254.092 61 254.167 60.922 254.167 60.826 C 254.167 60.663 254.297 60.474 254.792 59.923 C 254.906 59.795 255 59.535 255 59.345 C 255 59.155 255.075 59 255.167 59 C 255.258 59 255.333 58.813 255.333 58.583 C 255.333 58.324 255.428 58.167 255.583 58.167 C 255.739 58.167 255.833 58.009 255.833 57.75 C 255.833 57.521 255.908 57.333 256 57.333 C 256.092 57.333 256.167 57.179 256.167 56.99 C 256.167 56.801 256.239 56.692 256.328 56.747 C 256.417 56.802 256.538 56.656 256.597 56.423 C 256.655 56.191 256.77 56 256.851 56 C 256.933 56 257 55.85 257 55.667 C 257 55.483 257.075 55.333 257.167 55.333 C 257.258 55.333 257.333 55.191 257.333 55.018 C 257.333 54.844 257.446 54.659 257.583 54.606 C 257.721 54.554 257.833 54.363 257.833 54.182 C 257.833 54.001 257.908 53.807 258 53.75 C 258.092 53.693 258.167 53.422 258.167 53.147 C 258.167 52.872 258.238 52.691 258.325 52.745 C 258.412 52.799 258.533 52.577 258.594 52.253 C 258.655 51.928 258.771 51.622 258.852 51.572 C 258.934 51.521 259 51.218 259 50.897 C 259 50.576 259.059 50.35 259.132 50.395 C 259.205 50.44 259.282 50.24 259.304 49.95 C 259.326 49.661 259.454 49.362 259.589 49.287 C 259.731 49.207 259.833 48.906 259.833 48.565 C 259.833 48.244 259.893 48.017 259.965 48.062 C 260.038 48.107 260.115 47.917 260.136 47.639 C 260.194 46.874 260.941 46.334 261.25 46.833 C 261.534 47.293 262.167 47.006 262.167 46.417 C 262.167 46.096 262.092 45.833 262 45.833 C 261.908 45.833 261.833 45.571 261.833 45.25 C 261.833 44.929 261.908 44.667 262 44.667 C 262.092 44.667 262.167 44.367 262.167 44 C 262.167 43.519 262.236 43.333 262.417 43.333 C 262.554 43.333 262.658 43.277 262.647 43.208 C 262.599 42.903 262.68 42.667 262.833 42.667 C 262.931 42.667 263 43.222 263 44 C 263 44.778 263.069 45.333 263.167 45.333 C 263.261 45.333 263.333 45.823 263.333 46.468 C 263.333 47.208 263.419 47.716 263.578 47.926 C 263.713 48.104 263.825 48.564 263.828 48.948 C 263.831 49.333 263.908 49.693 264 49.75 C 264.092 49.807 264.167 50.263 264.167 50.765 C 264.167 51.422 264.237 51.704 264.417 51.773 C 264.586 51.838 264.667 52.104 264.667 52.601 C 264.667 53.004 264.742 53.333 264.833 53.333 C 264.925 53.333 265 53.708 265 54.167 C 265 54.625 265.075 55 265.167 55 C 265.258 55 265.333 55.257 265.333 55.571 C 265.333 55.886 265.446 56.255 265.583 56.393 C 265.722 56.532 265.833 56.939 265.833 57.312 C 265.833 57.679 265.908 58.027 266 58.083 C 266.092 58.14 266.167 58.409 266.167 58.682 C 266.167 58.968 266.272 59.218 266.417 59.273 C 266.58 59.336 266.667 59.595 266.667 60.018 C 266.667 60.375 266.734 60.667 266.816 60.667 C 266.898 60.667 267.003 60.948 267.049 61.292 C 267.184 62.299 267.469 63.24 267.658 63.303 C 267.754 63.335 267.833 63.602 267.833 63.897 C 267.833 64.192 267.912 64.512 268.008 64.608 C 268.104 64.704 268.184 65.323 268.186 65.984 C 268.189 66.87 268.253 67.21 268.428 67.278 C 268.559 67.328 268.667 67.548 268.667 67.768 C 268.667 67.987 268.742 68.167 268.833 68.167 C 268.925 68.167 269 68.354 269 68.583 C 269 68.813 269.075 69 269.167 69 C 269.258 69 269.333 69.152 269.333 69.339 C 269.333 69.525 269.446 69.72 269.583 69.773 C 269.721 69.826 269.833 70.007 269.833 70.175 C 269.833 70.343 269.908 70.527 270 70.583 C 270.092 70.64 270.167 70.832 270.167 71.01 C 270.167 71.188 270.279 71.333 270.417 71.333 C 270.572 71.333 270.667 71.491 270.667 71.75 C 270.667 71.979 270.742 72.167 270.833 72.167 C 270.925 72.167 271 72.354 271 72.583 C 271 72.813 271.075 73 271.167 73 C 271.258 73 271.333 73.152 271.333 73.339 C 271.333 73.525 271.446 73.72 271.583 73.773 C 271.721 73.826 271.833 74.048 271.833 74.268 C 271.833 74.487 271.908 74.667 272 74.667 C 272.092 74.667 272.167 74.811 272.167 74.988 C 272.167 75.165 272.279 75.422 272.417 75.56 C 272.554 75.697 272.667 75.965 272.667 76.155 C 272.667 76.345 272.742 76.5 272.833 76.5 C 272.925 76.5 273 76.655 273 76.845 C 273 77.035 273.113 77.304 273.252 77.442 C 273.39 77.58 273.46 77.763 273.408 77.848 C 273.355 77.933 273.429 78.047 273.573 78.102 C 273.716 78.157 273.833 78.307 273.833 78.434 C 273.833 78.571 274.005 78.667 274.25 78.667 C 274.479 78.667 274.667 78.742 274.667 78.833 C 274.667 78.925 275.075 79 275.573 79 C 276.072 79 276.527 78.925 276.583 78.833 C 276.64 78.742 276.832 78.667 277.01 78.667 C 277.188 78.667 277.333 78.554 277.333 78.417 C 277.333 78.261 277.491 78.167 277.75 78.167 C 277.979 78.167 278.167 78.092 278.167 78 C 278.167 77.908 278.345 77.833 278.563 77.833 C 278.781 77.833 279.053 77.721 279.167 77.583 C 279.281 77.446 279.552 77.333 279.77 77.333 C 280.112 77.333 280.167 77.253 280.167 76.75 C 280.167 76.429 280.092 76.167 280 76.167 C 279.908 76.167 279.833 76.041 279.833 75.888 C 279.833 75.641 279.87 75.646 280.145 75.929 C 280.317 76.106 280.425 76.306 280.386 76.375 C 280.346 76.444 280.393 76.5 280.49 76.5 C 280.587 76.5 280.667 76.612 280.667 76.75 C 280.667 76.887 280.733 77 280.814 77 C 280.896 77 281.087 77.262 281.239 77.583 C 281.391 77.904 281.587 78.167 281.674 78.167 C 281.762 78.167 281.833 78.247 281.833 78.345 C 281.833 78.639 282.286 79 282.655 79 C 282.912 79 283 78.894 283 78.583 C 283 78.354 283.075 78.167 283.167 78.167 C 283.258 78.167 283.333 77.904 283.333 77.583 C 283.333 77.034 283.366 77 283.885 77 C 284.449 77 285 76.226 285 75.433 C 285 75.274 285.082 74.992 285.182 74.804 C 285.314 74.558 285.314 74.414 285.182 74.282 C 285.082 74.182 285 73.965 285 73.8 C 285 73.635 284.925 73.5 284.833 73.5 C 284.742 73.5 284.667 73.387 284.667 73.25 C 284.667 73.112 284.569 73 284.45 73 C 284.331 73 284.139 72.738 284.023 72.417 C 283.907 72.096 283.704 71.833 283.573 71.833 C 283.428 71.833 283.333 71.668 283.333 71.417 C 283.333 71.188 283.258 71 283.167 71 C 283.075 71 283 70.854 283 70.677 C 283 70.499 282.925 70.307 282.833 70.25 C 282.742 70.193 282.667 69.999 282.667 69.818 C 282.667 69.637 282.554 69.446 282.417 69.394 C 282.279 69.341 282.167 69.162 282.167 68.996 C 282.167 68.83 282.094 68.669 282.005 68.639 C 281.917 68.608 281.826 68.342 281.804 68.046 C 281.781 67.751 281.666 67.472 281.548 67.426 C 281.43 67.381 281.333 67.196 281.333 67.015 C 281.333 66.834 281.258 66.64 281.167 66.583 C 281.075 66.527 281 66.296 281 66.071 C 281 65.846 280.93 65.532 280.843 65.373 C 280.757 65.214 280.643 64.874 280.589 64.618 C 280.534 64.362 280.417 64.198 280.328 64.253 C 280.237 64.309 280.167 64.13 280.167 63.843 C 280.167 63.563 280.092 63.333 280 63.333 C 279.908 63.333 279.833 63.114 279.833 62.847 C 279.833 62.226 279.674 61.809 279.483 61.927 C 279.4 61.978 279.333 61.715 279.333 61.343 C 279.333 60.971 279.258 60.667 279.167 60.667 C 279.075 60.667 279 60.419 279 60.117 C 279 59.814 278.925 59.492 278.834 59.401 C 278.743 59.31 278.651 59.023 278.63 58.764 C 278.608 58.506 278.495 58.257 278.379 58.212 C 278.252 58.164 278.167 57.838 278.167 57.399 C 278.167 56.996 278.092 56.667 278 56.667 C 277.908 56.667 277.833 56.252 277.833 55.745 C 277.833 55.079 277.764 54.796 277.583 54.727 C 277.409 54.66 277.333 54.388 277.333 53.825 C 277.333 53.382 277.258 52.973 277.167 52.917 C 277.075 52.86 277 52.448 277 52 C 277 51.552 276.925 51.14 276.833 51.083 C 276.742 51.027 276.667 50.57 276.667 50.068 C 276.667 49.411 276.597 49.129 276.417 49.06 C 276.234 48.99 276.167 48.703 276.167 47.996 C 276.167 47.464 276.096 47.003 276.009 46.972 C 275.923 46.942 275.834 46.519 275.812 46.033 C 275.791 45.547 275.682 45.097 275.571 45.033 C 275.383 44.925 275.322 44.583 275.064 42.208 C 275.012 41.727 274.901 41.333 274.818 41.333 C 274.735 41.333 274.667 40.918 274.667 40.411 C 274.667 39.746 274.597 39.463 274.417 39.394 C 274.238 39.325 274.167 39.045 274.167 38.409 C 274.167 37.92 274.092 37.473 274 37.417 C 273.908 37.36 273.833 36.914 273.833 36.425 C 273.833 35.788 273.762 35.508 273.583 35.44 C 273.403 35.37 273.333 35.088 273.333 34.422 C 273.333 33.915 273.258 33.5 273.167 33.5 C 273.074 33.5 273 33.052 273 32.49 C 273 31.859 272.937 31.519 272.833 31.583 C 272.73 31.647 272.667 31.341 272.667 30.778 C 272.667 30.124 272.597 29.842 272.417 29.773 C 272.236 29.704 272.167 29.421 272.167 28.755 C 272.167 28.248 272.092 27.833 272 27.833 C 271.907 27.833 271.833 27.389 271.833 26.833 C 271.833 26.056 271.778 25.833 271.583 25.833 C 271.394 25.833 271.333 25.63 271.333 25 C 271.333 24.37 271.272 24.167 271.083 24.167 C 270.946 24.167 270.833 24.092 270.833 24 C 270.833 23.902 270.251 23.833 269.419 23.833 C 267.917 23.833 267.333 23.59 267.333 22.963 C 267.333 22.8 267.258 22.667 267.167 22.667 C 267.075 22.667 267 22.554 267 22.417 C 267 22.279 267.063 22.167 267.139 22.167 C 267.216 22.167 267.295 21.717 267.315 21.167 L 267.351 20.167 L 266.759 20.167 C 266.433 20.167 266.167 20.092 266.167 20 C 266.167 19.908 265.728 19.833 265.184 19.833 C 264.465 19.833 264.177 19.766 264.106 19.583 C 264.033 19.392 263.717 19.333 262.75 19.333 C 261.783 19.333 261.467 19.392 261.394 19.583 C 261.34 19.724 261.091 19.833 260.825 19.833 C 260.566 19.833 260.307 19.908 260.25 20 C 260.035 20.348 259.333 20.188 259.332 19.792 C 259.331 19.386 258.712 19 258.064 19 C 257.861 19 257.669 18.936 257.639 18.858 C 257.608 18.78 257.377 18.787 257.125 18.872 M 165.292 21.078 C 165.131 21.299 164.998 21.69 164.995 21.948 C 164.988 22.533 164.731 22.878 163.994 23.289 L 163.417 23.611 L 163.363 25.672 C 163.334 26.805 163.24 27.862 163.155 28.022 C 163.07 28.181 163 29.446 163 30.832 C 163 32.47 162.942 33.317 162.833 33.25 C 162.725 33.183 162.667 34.047 162.667 35.72 C 162.667 37.727 162.615 38.335 162.432 38.487 C 162.252 38.637 162.193 39.26 162.175 41.193 C 162.151 43.852 162.063 44.167 161.345 44.167 C 160.967 44.167 160.811 42.636 161.167 42.417 C 161.267 42.355 161.333 41.193 161.333 39.49 L 161.333 36.667 L 160.75 36.667 C 160.243 36.667 160.167 36.72 160.167 37.073 C 160.167 37.297 160.092 37.527 160 37.583 C 159.904 37.643 159.831 38.577 159.828 39.802 C 159.824 41.323 159.759 42.001 159.595 42.216 C 159.436 42.427 159.361 43.121 159.344 44.55 C 159.331 45.679 159.249 46.608 159.16 46.639 C 159.068 46.671 159 47.652 159 48.94 C 159 50.395 158.941 51.15 158.833 51.083 C 158.726 51.017 158.665 51.763 158.661 53.198 C 158.657 54.884 158.597 55.494 158.411 55.74 C 158.227 55.984 158.167 56.568 158.167 58.105 C 158.167 59.287 158.096 60.19 158 60.25 C 157.904 60.309 157.833 61.184 157.833 62.306 C 157.833 63.692 157.767 64.355 157.604 64.588 C 156.86 65.656 157.438 69 158.366 69 C 158.983 69 159.667 70.222 159.667 71.324 L 159.667 72.35 L 159.042 72.596 C 158.698 72.732 158.229 72.957 158 73.098 C 157.771 73.239 157.452 73.396 157.292 73.446 C 157.121 73.5 157 73.704 157 73.936 C 157 74.155 156.925 74.333 156.833 74.333 C 156.742 74.333 156.667 74.488 156.667 74.677 C 156.667 74.865 156.742 74.973 156.833 74.917 C 156.925 74.86 157 74.892 157 74.987 C 157 75.082 157.18 75.206 157.401 75.261 C 157.64 75.321 158.261 75.945 158.939 76.806 C 160.398 78.659 160.393 78.655 161.632 78.661 C 162.753 78.667 162.064 78.906 173.208 74.646 C 175.156 73.902 177.162 73.191 177.667 73.067 C 178.888 72.767 185.139 71.262 187.333 70.739 C 188.296 70.509 189.346 70.254 189.667 70.171 C 189.987 70.089 190.605 69.932 191.039 69.823 C 191.473 69.714 192.248 69.66 192.763 69.702 C 193.447 69.759 193.721 69.72 193.783 69.557 C 193.837 69.417 194.143 69.333 194.601 69.333 C 195.004 69.333 195.333 69.258 195.333 69.167 C 195.333 69.075 195.704 69 196.157 69 C 196.61 69 197.027 68.925 197.083 68.833 C 197.14 68.742 197.468 68.667 197.811 68.667 C 198.155 68.667 198.582 68.557 198.76 68.422 C 198.938 68.287 199.327 68.175 199.625 68.172 L 200.167 68.167 L 200.167 66.785 L 200.167 65.404 L 199.663 65.366 C 199.339 65.341 199.124 65.418 199.061 65.58 C 198.946 65.881 197 65.953 197 65.657 C 197 65.56 196.93 65.523 196.845 65.576 C 196.76 65.629 196.643 65.596 196.585 65.503 C 196.519 65.397 196.795 65.333 197.323 65.333 C 197.787 65.333 198.167 65.266 198.167 65.183 C 198.167 65.101 198.485 64.992 198.875 64.941 C 200.431 64.738 200.922 64.615 201.05 64.396 C 201.123 64.27 201.363 64.167 201.582 64.167 C 201.801 64.167 202.027 64.092 202.083 64 C 202.14 63.908 202.315 63.833 202.473 63.833 C 203.037 63.833 203.333 63.23 203.333 62.081 L 203.333 61 L 202.167 61 C 201.5 61 201 60.929 201 60.833 C 201 60.606 193.724 60.606 193.583 60.833 C 193.527 60.925 193.185 61 192.823 61 C 192.462 61 192.167 60.925 192.167 60.833 C 192.167 60.731 191.389 60.667 190.167 60.667 C 188.944 60.667 188.167 60.731 188.167 60.833 C 188.167 60.925 188.004 61 187.805 61 C 187.606 61 187.319 61.112 187.167 61.25 C 187.015 61.387 186.559 61.566 186.154 61.647 C 185.439 61.79 184.367 62.016 181.25 62.684 C 177.474 63.493 177.295 63.517 176.988 63.239 C 176.732 63.007 176.551 63.024 175.102 63.408 C 174.221 63.642 172.77 64.027 171.879 64.264 C 170.987 64.5 170.2 64.73 170.129 64.773 C 170.058 64.817 169.922 64.805 169.828 64.747 C 169.272 64.403 172.661 63.026 175.988 62.243 C 176.59 62.101 177.383 61.912 177.75 61.823 C 178.767 61.575 181.383 61.033 183.333 60.667 C 184.296 60.486 185.421 60.268 185.833 60.182 C 186.246 60.096 187.202 60.068 187.958 60.12 C 188.934 60.187 189.333 60.159 189.333 60.024 C 189.333 59.902 189.69 59.833 190.316 59.833 C 191.035 59.833 191.323 59.766 191.394 59.583 C 191.466 59.394 191.773 59.333 192.661 59.333 L 193.833 59.333 L 193.833 58.583 L 193.833 57.833 L 192.343 57.833 C 191.524 57.833 190.807 57.908 190.75 58 C 190.693 58.092 190.13 58.167 189.498 58.167 C 188.731 58.167 188.306 58.239 188.217 58.385 C 188.019 58.708 187.229 58.976 185.917 59.165 C 185.275 59.257 184.112 59.45 183.333 59.593 C 182.554 59.736 181.542 59.92 181.083 60.002 C 178.239 60.513 177.381 60.679 176.375 60.916 C 175.756 61.062 174.725 61.302 174.083 61.449 C 173.442 61.596 172.188 61.964 171.296 62.266 C 169.36 62.924 169.432 63.001 169.672 60.542 C 169.777 59.465 169.928 57.833 170.007 56.917 C 170.405 52.327 170.505 51.202 170.749 48.583 C 170.894 47.025 171.082 44.925 171.167 43.917 C 171.251 42.908 171.439 40.808 171.585 39.25 C 171.829 36.619 171.949 35.274 172.326 30.917 C 172.405 30 172.567 28.217 172.685 26.955 C 172.899 24.68 172.898 24.657 172.538 24.297 L 172.175 23.934 L 171.523 24.3 C 171.165 24.502 170.638 24.667 170.352 24.667 C 170.067 24.667 169.833 24.742 169.833 24.833 C 169.833 24.925 169.646 25 169.417 25 C 169.001 25 169 24.995 169 23.407 C 169 22.531 168.934 21.854 168.854 21.904 C 168.773 21.954 168.662 21.771 168.608 21.497 C 168.538 21.148 168.411 21 168.181 21 C 168 21 167.807 20.925 167.75 20.833 C 167.518 20.458 165.604 20.649 165.292 21.078 M 122.667 21.896 C 122.667 22.49 122.582 22.863 122.417 23 C 122.243 23.144 122.167 23.528 122.167 24.261 C 122.167 24.84 122.092 25.36 122 25.417 C 121.908 25.473 121.831 25.946 121.828 26.468 C 121.825 27.037 121.725 27.546 121.578 27.74 C 121.221 28.212 121.226 32.037 121.583 32.333 C 121.926 32.618 121.932 34.111 121.591 34.111 C 121.457 34.111 121.38 34.059 121.42 33.994 C 121.545 33.793 120.872 33.301 120.554 33.362 C 120.296 33.411 120.243 33.617 120.201 34.716 C 120.174 35.428 120.09 35.973 120.015 35.926 C 119.939 35.879 119.863 36.531 119.846 37.376 C 119.826 38.365 119.737 39.001 119.596 39.164 C 119.461 39.319 119.364 39.931 119.344 40.75 C 119.326 41.483 119.241 42.108 119.156 42.139 C 119.07 42.169 119 42.859 119 43.671 C 119 44.5 118.925 45.193 118.829 45.253 C 118.735 45.311 118.675 45.61 118.696 45.918 C 118.716 46.226 118.793 46.441 118.867 46.396 C 118.94 46.351 119 46.656 119 47.073 C 119 47.491 118.925 47.833 118.833 47.833 C 118.742 47.833 118.667 48.021 118.667 48.25 C 118.667 48.509 118.572 48.667 118.417 48.667 C 118.279 48.667 118.167 48.812 118.167 48.99 C 118.167 49.168 118.092 49.36 118 49.417 C 117.761 49.564 117.794 50.495 118.042 50.59 C 118.286 50.683 118.232 52.667 117.985 52.667 C 117.902 52.667 117.833 53.102 117.833 53.633 C 117.833 54.165 117.744 54.689 117.635 54.798 C 117.416 55.018 117.366 55.247 117.309 56.292 C 117.288 56.681 117.21 57 117.136 57 C 117.061 57 117 57.45 117 58 C 117 58.556 116.926 59 116.833 59 C 116.741 59 116.667 59.439 116.667 59.982 C 116.667 60.649 116.595 60.992 116.443 61.05 C 116.294 61.108 116.209 61.497 116.185 62.234 L 116.149 63.333 L 116.974 63.333 C 117.748 63.333 117.797 63.358 117.774 63.75 C 117.752 64.132 117.685 64.166 116.958 64.167 C 116.225 64.167 116.167 64.197 116.167 64.583 C 116.167 64.843 116.261 65 116.417 65 C 116.59 65 116.667 65.174 116.667 65.563 C 116.667 65.873 116.554 66.219 116.417 66.333 C 116.273 66.452 116.167 66.816 116.167 67.187 C 116.167 67.543 116.092 67.833 116 67.833 C 115.908 67.833 115.833 68.162 115.833 68.563 C 115.833 68.964 115.736 69.373 115.618 69.471 C 115.5 69.57 115.384 69.935 115.361 70.283 C 115.338 70.632 115.247 70.942 115.159 70.972 C 115.072 71.003 115 71.617 115 72.337 C 115 73.058 114.925 73.693 114.833 73.75 C 114.742 73.807 114.667 74.107 114.667 74.417 C 114.667 74.727 114.742 75.027 114.833 75.083 C 114.925 75.14 115 75.3 115 75.438 C 115 75.73 115.393 76.167 115.655 76.167 C 115.753 76.167 115.833 76.279 115.833 76.417 C 115.833 76.572 115.991 76.667 116.25 76.667 C 116.479 76.667 116.667 76.734 116.667 76.816 C 116.667 77.103 119.985 77.461 120.151 77.192 C 120.21 77.097 120.84 77.004 121.551 76.985 C 122.262 76.966 122.883 76.887 122.932 76.809 C 122.98 76.731 123.497 76.667 124.08 76.667 C 125.227 76.667 125.718 76.551 125.573 76.316 C 125.521 76.233 126.071 76.167 126.814 76.167 C 127.547 76.167 128.193 76.092 128.25 76 C 128.307 75.908 128.868 75.833 129.498 75.833 C 130.293 75.833 130.719 75.757 130.893 75.583 C 131.074 75.402 131.516 75.333 132.498 75.333 C 133.359 75.333 133.815 75.273 133.75 75.167 C 133.684 75.061 134.165 75 135.073 75 C 135.913 75 136.5 74.931 136.5 74.833 C 136.5 74.737 137.024 74.667 137.738 74.667 C 138.616 74.667 139.049 74.594 139.226 74.417 C 139.404 74.239 139.838 74.167 140.728 74.167 C 141.417 74.167 142.027 74.092 142.083 74 C 142.14 73.908 142.663 73.833 143.246 73.833 C 144.393 73.833 144.885 73.718 144.739 73.483 C 144.688 73.399 145.238 73.333 145.98 73.333 C 146.714 73.333 147.36 73.258 147.417 73.167 C 147.473 73.075 148.115 73 148.843 73 C 149.614 73 150.167 72.93 150.167 72.833 C 150.167 72.742 150.429 72.667 150.75 72.667 C 151.137 72.667 151.333 72.589 151.333 72.434 C 151.333 72.307 151.446 72.159 151.583 72.106 C 152.128 71.897 151.903 70.695 151.308 70.636 C 150.179 70.523 150.235 69.871 151.379 69.812 C 151.898 69.785 152.167 69.696 152.167 69.552 C 152.167 69.431 152.349 69.333 152.573 69.333 C 152.797 69.333 153.027 69.258 153.083 69.167 C 153.14 69.075 153.319 69 153.482 69 C 153.644 69 153.877 68.813 154 68.583 C 154.123 68.354 154.323 68.167 154.445 68.167 C 154.612 68.167 154.667 67.818 154.667 66.75 C 154.667 65.444 154.693 65.333 155 65.333 C 155.302 65.333 155.333 65.222 155.333 64.167 L 155.333 63 L 154.75 63 C 154.429 63 154.167 62.925 154.167 62.833 C 154.167 62.742 153.876 62.667 153.52 62.667 C 153.149 62.667 152.786 62.56 152.667 62.417 C 152.302 61.978 141.813 62.062 142.084 62.502 C 142.13 62.575 141.024 62.646 139.626 62.658 C 138.229 62.671 137.014 62.753 136.926 62.84 C 136.838 62.928 135.844 63 134.717 63 C 133.461 63 132.667 63.065 132.667 63.167 C 132.667 63.266 132.031 63.333 131.093 63.333 C 130.207 63.333 129.474 63.407 129.415 63.503 C 129.357 63.596 129.24 63.629 129.155 63.576 C 129.07 63.523 129 63.56 129 63.657 C 129 63.769 128.42 63.833 127.417 63.833 C 126.472 63.833 125.833 63.901 125.833 64 C 125.833 64.096 125.306 64.167 124.583 64.167 L 123.333 64.167 L 123.333 63 C 123.333 62.186 123.396 61.829 123.542 61.819 C 123.656 61.81 124.106 61.816 124.542 61.831 C 125.162 61.852 125.333 61.801 125.333 61.596 C 125.333 61.451 125.446 61.333 125.583 61.333 C 125.749 61.333 125.833 61.168 125.833 60.843 C 125.833 60.574 125.908 60.307 126 60.25 C 126.092 60.193 126.167 59.996 126.167 59.812 C 126.167 59.627 126.279 59.364 126.417 59.226 C 126.554 59.089 126.667 58.794 126.667 58.571 C 126.667 58.349 126.742 58.167 126.833 58.167 C 126.925 58.167 127 57.984 127 57.76 C 127 57.536 127.075 57.307 127.167 57.25 C 127.258 57.193 127.333 56.926 127.333 56.657 C 127.333 56.332 127.418 56.167 127.583 56.167 C 127.758 56.167 127.833 55.991 127.833 55.583 C 127.833 55.262 127.908 55 128 55 C 128.092 55 128.167 54.845 128.167 54.655 C 128.167 54.018 128.569 53.808 128.912 54.266 C 129.238 54.699 132.339 54.895 132.585 54.497 C 132.643 54.404 132.76 54.371 132.845 54.424 C 132.93 54.477 133 54.44 133 54.343 C 133 54.229 133.676 54.167 134.907 54.167 C 135.998 54.167 136.858 54.095 136.917 54 C 136.975 53.905 137.803 53.833 138.831 53.833 C 140.219 53.833 140.701 53.775 140.893 53.583 C 141.042 53.434 141.45 53.333 141.905 53.333 C 142.7 53.333 142.898 52.963 142.566 52.097 C 142.451 51.8 141 51.71 141 52 C 141 52.097 140.443 52.167 139.661 52.167 C 138.625 52.167 138.301 52.223 138.227 52.417 C 138.155 52.605 137.852 52.667 137.003 52.667 C 136.203 52.667 135.814 52.594 135.667 52.417 C 135.489 52.202 135.545 52.167 136.063 52.167 C 136.395 52.167 136.667 52.092 136.667 52 C 136.667 51.905 137.163 51.833 137.821 51.833 C 138.626 51.833 139.052 51.757 139.226 51.583 C 139.401 51.408 139.829 51.333 140.655 51.333 C 141.329 51.333 141.833 51.262 141.833 51.167 C 141.833 51.074 142.278 51 142.833 51 C 143.389 51 143.833 50.926 143.833 50.833 C 143.833 50.742 144.136 50.667 144.505 50.667 C 144.949 50.667 145.21 50.582 145.273 50.417 C 145.34 50.242 145.612 50.167 146.175 50.167 C 146.618 50.167 147.027 50.092 147.083 50 C 147.14 49.908 147.473 49.833 147.823 49.833 C 148.185 49.833 148.549 49.726 148.667 49.583 C 148.781 49.446 149.086 49.333 149.344 49.333 C 149.602 49.333 149.86 49.258 149.917 49.167 C 149.973 49.075 150.14 49 150.287 49 C 150.654 49 151.833 48.467 151.833 48.301 C 151.833 48.227 152.021 48.167 152.25 48.167 C 152.479 48.167 152.667 48.092 152.667 48 C 152.667 47.908 152.817 47.833 153 47.833 C 153.185 47.833 153.333 47.722 153.333 47.583 C 153.333 47.446 153.409 47.333 153.502 47.333 C 153.893 47.333 154.635 46.394 154.688 45.831 C 154.718 45.512 154.819 45.194 154.913 45.125 C 155.136 44.962 154.702 44.673 154.229 44.669 C 154.034 44.668 153.781 44.554 153.667 44.417 C 153.549 44.274 153.185 44.167 152.823 44.167 C 152.473 44.167 152.14 44.092 152.083 44 C 152.027 43.908 151.835 43.833 151.657 43.833 C 151.376 43.833 151.333 43.713 151.333 42.921 C 151.333 42.157 151.272 41.967 150.957 41.761 C 150.572 41.509 149.791 41.463 149.938 41.701 C 149.983 41.774 148.895 41.833 147.52 41.833 C 146.033 41.833 144.978 41.901 144.917 42 C 144.856 42.098 143.892 42.167 142.587 42.167 C 140.343 42.167 139.758 42.244 139.927 42.517 C 139.98 42.603 138.949 42.667 137.52 42.667 C 136.033 42.667 134.978 42.734 134.917 42.833 C 134.86 42.925 134.124 43 133.281 43 L 131.748 43 L 131.808 41.625 C 131.842 40.869 131.936 40.225 132.018 40.194 C 132.1 40.164 132.167 39.514 132.167 38.75 C 132.167 37.924 132.238 37.337 132.342 37.303 C 132.556 37.231 132.637 36.837 132.654 35.792 L 132.667 35 L 133.417 35 C 133.829 35 134.167 34.925 134.167 34.833 C 134.167 34.733 134.854 34.667 135.896 34.667 C 137.23 34.667 137.673 34.609 137.833 34.417 C 137.995 34.222 138.451 34.167 139.904 34.167 C 140.928 34.167 141.838 34.097 141.925 34.011 C 142.012 33.926 142.908 33.832 143.917 33.803 C 145.273 33.764 145.739 33.696 145.708 33.542 C 145.677 33.387 146.057 33.333 147.176 33.333 L 148.686 33.333 L 148.635 32.625 L 148.583 31.917 L 146.013 31.871 C 144.414 31.842 143.378 31.889 143.271 31.996 C 142.85 32.416 141.333 32.042 141.333 31.517 C 141.333 31.218 137.894 31.297 137.588 31.602 C 137.306 31.884 135.485 31.918 135.213 31.646 C 135.11 31.543 134.783 31.431 134.485 31.396 C 133.475 31.279 133.576 31.05 134.667 30.986 C 135.079 30.961 135.493 30.884 135.587 30.815 C 135.681 30.745 137.7 30.665 140.074 30.636 C 143.34 30.596 144.406 30.533 144.458 30.375 C 144.511 30.216 145.471 30.167 148.504 30.167 C 150.975 30.167 152.519 30.104 152.583 30 C 152.64 29.908 152.903 29.833 153.168 29.833 C 153.433 29.833 153.71 29.736 153.783 29.617 C 153.857 29.497 154.16 29.23 154.458 29.022 C 154.756 28.814 155 28.537 155 28.405 C 155 28.274 155.075 28.167 155.167 28.167 C 155.258 28.167 155.333 28.086 155.333 27.988 C 155.333 27.89 155.427 27.705 155.542 27.577 C 156.087 26.969 156.167 26.814 156.167 26.358 C 156.167 26.089 156.262 25.832 156.379 25.788 C 156.495 25.743 156.608 25.494 156.63 25.236 C 156.651 24.977 156.743 24.69 156.834 24.599 C 157.324 24.109 156.856 23.24 155.875 22.818 C 155.577 22.69 155.333 22.491 155.333 22.376 C 155.333 22.261 155.221 22.167 155.083 22.167 C 154.946 22.167 154.833 22.092 154.833 22 C 154.833 21.908 154.683 21.833 154.5 21.833 C 154.309 21.833 154.167 21.722 154.167 21.573 C 154.167 21.431 154.1 21.355 154.017 21.406 C 153.935 21.457 153.825 21.386 153.773 21.249 C 153.661 20.958 150.852 20.881 150.573 21.161 C 150.473 21.261 145.913 21.33 138.539 21.344 C 128.485 21.363 126.667 21.402 126.667 21.6 C 126.667 21.728 126.554 21.833 126.417 21.833 C 126.279 21.833 126.167 21.73 126.167 21.604 C 126.167 21.431 125.858 21.373 124.895 21.366 C 124.196 21.361 123.543 21.277 123.445 21.179 C 122.967 20.7 122.667 20.977 122.667 21.896 M 199 21.667 C 199 22.088 199.077 22.334 199.208 22.335 C 199.568 22.339 200.507 24.748 200.493 25.631 C 200.489 25.88 200.379 26.382 200.249 26.746 C 200.031 27.359 200.038 27.436 200.34 27.757 C 200.52 27.948 200.667 28.27 200.667 28.471 C 200.667 28.673 200.742 28.987 200.833 29.169 C 200.925 29.351 201.075 29.649 201.167 29.831 C 201.258 30.013 201.333 30.341 201.333 30.561 C 201.333 30.78 201.439 31.046 201.567 31.153 C 201.803 31.349 201.94 32.061 202.104 33.949 C 202.156 34.538 202.296 35.066 202.43 35.178 C 202.597 35.317 202.667 35.756 202.667 36.677 C 202.667 37.394 202.742 38.027 202.833 38.083 C 202.93 38.143 203 39.074 203 40.31 C 203 41.478 203.071 42.505 203.159 42.592 C 203.246 42.679 203.328 43.688 203.342 44.834 C 203.359 46.333 203.43 46.989 203.595 47.174 C 203.775 47.377 203.827 48.326 203.839 51.629 C 203.848 54.039 203.921 55.868 204.011 55.923 C 204.23 56.059 204.219 69.333 204 69.333 C 203.781 69.333 203.785 70.266 204.006 70.678 C 204.125 70.9 204.125 71 204.006 71 C 203.739 71 203.79 72.614 204.06 72.718 C 204.186 72.766 204.336 73.177 204.397 73.639 C 204.603 75.192 204.783 75.5 205.485 75.5 C 206.624 75.5 207.195 74.541 206.5 73.795 C 205.929 73.182 206.025 71.532 206.667 70.917 L 207.167 70.438 L 207.167 70.878 C 207.167 71.12 207.078 71.511 206.971 71.748 C 206.754 72.224 207.021 74.045 207.424 74.833 C 208.429 76.8 213.167 77.741 213.167 75.974 C 213.167 74.782 214.512 73.866 215.352 74.487 C 215.639 74.7 216.073 74.833 216.476 74.833 L 217.133 74.833 L 218.878 71.708 C 219.838 69.99 220.808 68.246 221.034 67.833 C 221.49 67.002 222.391 65.375 222.855 64.547 C 223.02 64.252 223.431 63.502 223.769 62.88 C 224.106 62.259 224.436 61.675 224.502 61.583 C 224.622 61.416 225.031 60.683 226.13 58.667 C 226.455 58.071 227.411 56.346 228.254 54.833 C 229.098 53.321 230.036 51.633 230.338 51.083 C 230.641 50.533 231.075 49.746 231.303 49.333 C 231.823 48.394 235.528 43.09 235.844 42.833 C 235.9 42.788 236.189 42.412 236.485 42 C 237.568 40.489 239.003 39.025 239.588 38.832 C 239.906 38.727 240.167 38.534 240.167 38.404 C 240.167 38.203 240.452 38.092 240.851 38.139 C 240.907 38.145 241.051 37.967 241.171 37.742 C 241.291 37.517 241.457 37.333 241.54 37.333 C 241.623 37.333 241.798 37.226 241.929 37.095 C 242.21 36.814 242.274 34.167 242 34.167 C 241.908 34.167 241.833 33.759 241.833 33.26 C 241.833 32.431 241.535 31.813 241.371 32.304 C 241.335 32.412 241.238 32.5 241.155 32.5 C 240.305 32.5 237.167 35.875 237.167 36.789 C 237.167 37.136 237.092 37.167 236.25 37.167 C 234.985 37.167 235.117 36.856 237.448 34.337 C 238.556 33.141 238.557 33.149 237.077 31.66 C 235.117 29.688 234.949 29.712 232.563 32.292 C 231.567 33.369 230.364 34.662 229.889 35.167 C 229.414 35.671 228.864 36.271 228.666 36.5 C 228.469 36.729 227.969 37.275 227.554 37.713 C 226.627 38.695 226.627 39.427 227.555 38.528 C 228.052 38.046 228.673 37.82 228.663 38.125 C 228.65 38.503 227.456 39.856 227.285 39.685 C 226.835 39.235 226.496 39.598 224.3 42.875 C 220.046 49.224 218.042 52.66 216.278 56.625 C 215.939 57.387 215.728 57.667 215.491 57.667 C 215.128 57.667 214.98 54.302 215.333 54.083 C 215.657 53.883 215.493 53.687 214.958 53.636 L 214.417 53.583 L 214.371 50.512 C 214.343 48.592 214.257 47.359 214.142 47.221 C 214.008 47.059 214.015 46.933 214.169 46.748 C 214.33 46.553 214.337 46.277 214.199 45.539 C 214.101 45.014 213.934 44.021 213.828 43.333 C 213.722 42.646 213.524 41.521 213.389 40.833 C 213.253 40.146 213.099 38.662 213.047 37.536 C 212.994 36.411 212.887 35.45 212.809 35.402 C 212.731 35.353 212.667 34.952 212.667 34.511 C 212.667 34 212.576 33.632 212.417 33.5 C 212.264 33.373 212.167 33.008 212.167 32.563 C 212.167 32.162 212.109 31.833 212.04 31.833 C 211.913 31.833 211.754 31.585 211.392 30.82 C 211.228 30.472 210.413 27.787 210.005 26.25 C 209.678 25.015 209.539 24.833 208.924 24.833 C 208.294 24.833 208.222 24.955 208.128 26.167 C 208.055 27.123 207.639 26.9 207.342 25.745 C 206.659 23.09 204.878 21.924 200.969 21.575 C 200.315 21.517 199.772 21.377 199.657 21.238 C 199.278 20.782 199 20.963 199 21.667 M 231.251 30.162 C 230.186 30.869 229.044 32.44 229.235 32.937 C 229.359 33.261 232.39 30.422 232.279 30.086 C 232.18 29.79 231.766 29.82 231.251 30.162 M 268.964 34.042 C 269.003 35.531 268.801 36.671 268.71 35.469 C 268.695 35.269 268.567 35.041 268.425 34.961 C 268.259 34.869 268.167 34.579 268.167 34.156 C 268.167 33.793 268.073 33.337 267.958 33.143 C 267.792 32.86 267.792 32.775 267.958 32.714 C 268.073 32.673 268.167 32.527 268.167 32.391 C 268.167 32.23 268.297 32.162 268.542 32.197 C 268.901 32.248 268.919 32.327 268.964 34.042 M 226.068 35.875 C 223.965 38.1 222.55 40.034 221.679 41.874 C 221.003 43.301 221.417 43.095 222.781 41.325 C 225.223 38.156 227.499 35.085 227.5 34.958 C 227.501 34.592 226.944 34.949 226.068 35.875 M 240.333 34.99 C 240.333 35.076 240.258 35.193 240.167 35.25 C 240.075 35.307 240 35.521 240 35.727 C 240 36.392 239.29 36.731 238.691 36.352 C 238.217 36.051 239.226 34.844 239.958 34.837 C 240.165 34.835 240.333 34.904 240.333 34.99 M 233.586 38.842 C 233.694 39.181 232.911 40.406 231.861 41.542 C 230.854 42.632 230.943 41.855 232.024 40.123 C 233.093 38.412 233.376 38.179 233.586 38.842 M 219.114 45.792 C 218.666 46.69 218.427 47.852 218.659 47.995 C 219.54 48.54 220.514 46.372 219.738 45.595 C 219.395 45.252 219.38 45.256 219.114 45.792 M 217.722 49.21 C 217.524 49.507 217.155 50.032 216.903 50.376 C 216.652 50.72 216.492 51.047 216.548 51.104 C 216.67 51.226 217.167 50.762 217.167 50.526 C 217.167 50.435 217.226 50.336 217.299 50.306 C 217.513 50.215 218.333 49.069 218.333 48.859 C 218.333 48.519 218.093 48.657 217.722 49.21 M 261.207 48.998 C 260.959 49.395 260.932 50.167 261.167 50.167 C 261.258 50.167 261.333 50.349 261.333 50.571 C 261.333 50.794 261.446 51.089 261.583 51.226 C 261.721 51.364 261.833 51.665 261.833 51.895 C 261.833 52.125 261.908 52.36 262 52.417 C 262.098 52.477 262.167 53.446 262.167 54.76 L 262.167 57 L 263 57 C 263.63 57 263.833 56.939 263.833 56.75 C 263.833 56.612 263.908 56.5 264 56.5 C 264.092 56.5 264.167 56.237 264.167 55.917 C 264.167 55.596 264.237 55.333 264.322 55.333 C 264.408 55.333 264.525 55.183 264.583 55 C 264.703 54.624 264.54 53.956 264.356 54.069 C 264.29 54.11 264.225 53.998 264.211 53.82 C 264.185 53.462 263.79 53 263.512 53 C 263.411 53 263.333 52.672 263.333 52.25 C 263.333 51.837 263.258 51.5 263.167 51.5 C 263.075 51.5 263 51.279 263 51.01 C 263 50.74 262.925 50.473 262.833 50.417 C 262.742 50.36 262.667 50.128 262.667 49.902 C 262.667 49.675 262.554 49.446 262.417 49.394 C 262.279 49.341 262.167 49.156 262.167 48.982 C 262.167 48.552 261.478 48.563 261.207 48.998 M 161.333 52.417 C 161.333 52.921 161.258 53.333 161.167 53.333 C 160.983 53.333 160.933 51.789 161.111 51.611 C 161.312 51.411 161.333 51.49 161.333 52.417 M 119.333 58.333 L 119.333 59.333 L 118.75 59.333 C 118.429 59.333 118.167 59.258 118.167 59.167 C 118.167 59.075 118.239 59 118.328 59 C 118.416 59 118.538 58.625 118.599 58.167 C 118.776 56.836 119.333 56.963 119.333 58.333 M 124.01 60.557 C 123.886 60.681 123.833 60.486 123.833 59.894 C 123.833 58.804 124.068 58.568 124.135 59.591 C 124.164 60.025 124.107 60.459 124.01 60.557 M 263.833 59.452 C 263.833 59.662 263.758 59.833 263.667 59.833 C 263.575 59.833 263.5 59.983 263.5 60.167 C 263.5 60.35 263.575 60.5 263.667 60.5 C 263.763 60.5 263.833 61.028 263.833 61.75 C 263.833 62.472 263.904 63 264 63 C 264.092 63 264.167 63.262 264.167 63.583 C 264.167 63.904 264.246 64.167 264.343 64.167 C 264.44 64.167 264.473 64.242 264.417 64.333 C 264.36 64.425 264.393 64.5 264.49 64.5 C 264.587 64.5 264.667 64.804 264.667 65.177 C 264.667 65.585 264.733 65.812 264.833 65.75 C 264.925 65.693 265 65.802 265 65.992 C 265 66.182 265.067 66.468 265.148 66.627 C 265.23 66.786 265.428 67.217 265.589 67.583 C 265.751 67.95 265.946 68.38 266.025 68.539 C 266.103 68.699 266.167 68.942 266.167 69.081 C 266.167 69.22 266.279 69.333 266.417 69.333 C 266.57 69.333 266.667 69.489 266.667 69.736 C 266.667 69.958 266.745 70.165 266.841 70.197 C 266.936 70.229 267.027 70.417 267.042 70.616 C 267.057 70.814 267.129 70.94 267.201 70.895 C 267.274 70.85 267.333 70.935 267.333 71.084 C 267.333 71.293 267.472 71.342 267.954 71.302 C 268.638 71.245 269.094 69.833 268.429 69.833 C 268.24 69.833 268.167 69.67 268.167 69.25 C 268.167 68.929 268.092 68.667 268 68.667 C 267.908 68.667 267.833 68.412 267.833 68.101 C 267.833 67.775 267.736 67.498 267.604 67.448 C 267.478 67.399 267.325 67.11 267.265 66.805 C 267.005 65.497 266.955 65.333 266.814 65.333 C 266.733 65.333 266.667 65.106 266.667 64.828 C 266.667 64.533 266.563 64.283 266.417 64.227 C 266.276 64.173 266.167 63.925 266.167 63.659 C 266.167 63.399 266.092 63.14 266 63.083 C 265.908 63.027 265.833 62.757 265.833 62.485 C 265.833 62.198 265.728 61.949 265.583 61.894 C 265.442 61.84 265.333 61.591 265.333 61.325 C 265.333 61.066 265.258 60.807 265.167 60.75 C 265.075 60.693 265 60.464 265 60.24 C 265 60.016 264.933 59.833 264.851 59.833 C 264.77 59.833 264.657 59.651 264.601 59.427 C 264.464 58.883 263.833 58.904 263.833 59.452 M 161.017 59.883 C 160.883 60.017 160.835 59.934 160.838 59.575 C 160.843 59.144 160.866 59.121 161.022 59.391 C 161.151 59.612 161.149 59.751 161.017 59.883 M 221.917 60.166 C 222.022 60.337 220.399 62.167 220.142 62.167 C 219.798 62.167 220.063 61.696 220.869 60.88 C 221.841 59.896 221.777 59.94 221.917 60.166 M 218.495 66.039 C 217.812 68.077 217.582 68.307 216.835 67.702 L 216.447 67.388 L 217.099 66.176 C 217.732 64.998 218.715 63.907 218.989 64.077 C 219.064 64.123 218.842 65.006 218.495 66.039 M 119.06 64.417 C 119.119 64.569 119.061 64.667 118.911 64.667 C 118.761 64.667 118.667 64.828 118.667 65.083 C 118.667 65.313 118.587 65.5 118.49 65.5 C 118.393 65.5 118.36 65.575 118.417 65.667 C 118.473 65.758 118.44 65.833 118.343 65.833 C 118.242 65.833 118.167 65.475 118.167 65 C 118.167 64.143 118.797 63.731 119.06 64.417 M 276.167 68.417 C 276.167 68.554 276.092 68.667 276 68.667 C 275.908 68.667 275.833 68.554 275.833 68.417 C 275.833 68.279 275.908 68.167 276 68.167 C 276.092 68.167 276.167 68.279 276.167 68.417 M 278.583 72 C 278.64 72.092 278.832 72.167 279.01 72.167 C 279.297 72.167 279.333 72.289 279.333 73.26 C 279.333 73.946 279.271 74.315 279.167 74.25 C 279.075 74.193 279 73.964 279 73.74 C 279 73.516 278.925 73.333 278.833 73.333 C 278.742 73.333 278.667 73.189 278.667 73.014 C 278.667 72.542 278.486 72.155 278.316 72.261 C 278.234 72.312 278.167 72.236 278.167 72.093 C 278.167 71.802 278.425 71.744 278.583 72 M 268.667 73.583 C 268.667 73.904 268.742 74.167 268.833 74.167 C 268.925 74.167 269 74.462 269 74.823 C 269 75.185 269.075 75.527 269.167 75.583 C 269.258 75.64 269.333 75.814 269.333 75.97 C 269.333 76.126 269.522 76.457 269.754 76.707 C 269.985 76.956 270.172 77.199 270.17 77.247 C 270.152 77.695 270.192 77.833 270.341 77.833 C 270.436 77.833 270.712 78.016 270.953 78.24 C 271.275 78.539 271.467 78.607 271.674 78.496 C 271.829 78.413 271.991 78.38 272.033 78.422 C 272.075 78.464 272.126 78.086 272.147 77.583 C 272.169 77.03 272.114 76.667 272.009 76.667 C 271.912 76.667 271.833 76.479 271.833 76.25 C 271.833 75.991 271.739 75.833 271.583 75.833 C 271.428 75.833 271.333 75.676 271.333 75.417 C 271.333 75.188 271.258 75 271.167 75 C 271.075 75 271 74.859 271 74.687 C 271 74.515 270.887 74.281 270.75 74.167 C 270.612 74.053 270.5 73.856 270.5 73.73 C 270.5 73.603 270.425 73.5 270.333 73.5 C 270.242 73.5 270.167 73.387 270.167 73.25 C 270.167 73.065 269.972 73 269.417 73 C 268.671 73 268.667 73.003 268.667 73.583 M 282.021 74.115 C 282.177 74.307 282.183 74.357 282.042 74.272 C 281.908 74.192 281.833 74.247 281.833 74.427 C 281.833 74.657 281.789 74.67 281.583 74.5 C 281.27 74.24 281.258 73.833 281.563 73.833 C 281.689 73.833 281.895 73.96 282.021 74.115" stroke-linecap="round" />
</g>
</g>
</g>
</svg>